<svg width="200" height="200" viewBox="0 0 200 200" xmlns="http://www.w3.org/2000/svg">
    <rect width="200" height="200" rx="24" fill="#3270b7"/>

    <rect x="30" y="30" width="40" height="40" fill="#ffffff"/>
    <rect x="130" y="30" width="40" height="40" fill="#ffffff"/>
    <rect x="30" y="130" width="40" height="40" fill="#ffffff"/>

    <rect x="42" y="42" width="16" height="16" fill="#3270b7"/>
    <rect x="142" y="42" width="16" height="16" fill="#3270b7"/>
    <rect x="42" y="142" width="16" height="16" fill="#3270b7"/>

    <polygon points="100,78 65,95 100,112 135,95" fill="#ffffff"/>

    <path d="M83,106 L83,120 Q100,135 117,120 L117,106 L100,114 Z" fill="#ffffff"/>


    <line x1="130" y1="95" x2="130" y2="120" stroke="#ffffff" stroke-width="2"/>
    <circle cx="130" cy="118" r="3" fill="#ffffff"/>

    <polygon points="126,128 134,128 130,118" fill="#ffffff"/>
</svg>

